<?xml version="1.0"?>

<!DOCTYPE svg PUBLIC '-//W3C//DTD SVG 1.0//EN' 'http://www.w3.org/TR/2001/REC-SVG-20010904/DTD/svg10.dtd'>
<svg fill-opacity="1" xmlns:xlink="http://www.w3.org/1999/xlink" color-rendering="auto" color-interpolation="auto" text-rendering="auto" stroke="black" stroke-linecap="square" stroke-miterlimit="10" shape-rendering="auto" stroke-opacity="1" fill="black" stroke-dasharray="none" font-weight="normal" stroke-width="1" xmlns="http://www.w3.org/2000/svg" font-family="&apos;Dialog&apos;" font-style="normal" stroke-linejoin="miter" font-size="12" stroke-dashoffset="0" image-rendering="auto">
  <!--Unicode Character 'BLACK SAFETY SCISSORS' (U+2700)-->
  <defs id="genericDefs" />
  <g>
    <g>
      <path d="M308.8125 266.7656 Q286.7344 285.0469 261.7031 285.0469 Q260.0156 285.0469 256.3594 284.7656 L136.125 209.3906 L121.9219 217.125 Q107.2969 225.1406 107.4375 232.4531 L107.5781 238.2188 L107.5781 241.7344 Q107.5781 264.0938 94.3594 278.1562 Q80.7188 292.5 58.5 292.5 Q42.6094 292.5 31.7109 282.0938 Q20.8125 271.6875 20.8125 255.9375 Q20.8125 226.4062 64.6875 213.1875 L84.375 207.2812 Q95.3438 204.0469 99.1406 201.2344 Q105.8906 196.5938 105.8906 187.875 Q105.8906 176.2031 87.0469 170.7188 L66.6562 164.8125 Q20.8125 151.5938 20.8125 120.5156 Q20.8125 104.7656 32.0625 94.5 Q43.3125 84.2344 59.2031 84.2344 Q79.5938 84.2344 93.5859 98.9297 Q107.5781 113.625 107.5781 134.0156 L107.5781 144.9844 Q107.0156 150.75 119.8125 158.3438 L136.125 168.0469 L258.8906 92.9531 Q287.0156 92.9531 308.8125 110.9531 L172.4062 188.7188 L308.8125 266.7656 ZM145.125 188.0156 Q145.125 179.8594 136.9688 179.8594 Q128.8125 179.8594 128.8125 188.0156 Q128.8125 196.0312 136.9688 196.0312 Q145.125 196.0312 145.125 188.0156 ZM90.1406 132.8906 Q90.1406 121.2188 80.4375 111.4453 Q70.7344 101.6719 59.0625 101.6719 Q50.9062 101.6719 44.4375 107.2969 Q37.9688 112.9219 37.9688 120.9375 Q37.9688 135.1406 61.4531 144.1406 L70.3125 147.5156 Q77.3438 150.1875 79.1719 150.1875 Q90.1406 150.1875 90.1406 132.8906 ZM90.1406 243.8438 Q90.1406 228.2344 78.0469 228.2344 Q73.6875 228.2344 70.0312 229.6406 L58.7812 234 Q38.1094 242.0156 38.1094 256.2188 Q38.1094 264.2344 45 269.8594 Q51.4688 275.2031 59.625 275.2031 Q72 275.2031 81.0703 265.7109 Q90.1406 256.2188 90.1406 243.8438 Z" stroke="none" />
    </g>
  </g>
</svg>
