<?xml version="1.0" encoding="utf-8"?>
<!-- Generator: Adobe Illustrator 19.2.1, SVG Export Plug-In . SVG Version: 6.00 Build 0)  -->
<svg version="1.1" id="Layer_1" xmlns="http://www.w3.org/2000/svg" xmlns:xlink="http://www.w3.org/1999/xlink" x="0px" y="0px"
	 viewBox="0 0 345 62" style="enable-background:new 0 0 345 62;" xml:space="preserve">
<style type="text/css">
	.st0{fill:#010101;}
</style>
<g>
	<path d="M31.3,28c5.8,2.2,8.8,5.1,8.8,10.1c0,5.9-4.6,10.1-12.6,10.1c-3.7,0-7.1-0.9-9.5-2.3l1.5-4.7c1.8,1.2,5,2.4,8.1,2.4
		c4.4,0,6.5-2.2,6.5-5c0-2.9-1.7-4.5-6.3-6.2"/>
	<path d="M70.1,4.3v9.7h8.8v4.7h-8.8v18.1c0,4.2,1.2,6.5,4.6,6.5c1.6,0,2.8-0.2,3.5-0.4l0.3,4.6c-1.2,0.5-3.1,0.8-5.4,0.8
		c-2.8,0-5.1-0.9-6.6-2.6c-1.7-1.8-2.4-4.8-2.4-8.8V18.6h-5.2v-4.7h5.2V5.9L70.1,4.3z"/>
	<path d="M100.4,24.4c0-4-0.1-7.4-0.3-10.5h5.4l0.2,6.6h0.3c1.5-4.5,5.2-7.4,9.3-7.4c0.7,0,1.2,0.1,1.7,0.2v5.8
		c-0.6-0.1-1.3-0.2-2.1-0.2c-4.3,0-7.4,3.3-8.2,7.9c-0.1,0.8-0.3,1.8-0.3,2.8v17.9h-6V24.4z"/>
	<path d="M144.7,4.5c0.1,2.1-1.5,3.8-3.9,3.8c-2.2,0-3.7-1.7-3.7-3.8c0-2.2,1.6-3.8,3.8-3.8C143.2,0.7,144.7,2.3,144.7,4.5z
		 M137.9,47.6V13.9h6.1v33.6H137.9z"/>
	<path d="M168.9,24.9c0-4.3-0.1-7.8-0.3-11h5.5l0.3,5.8h0.1c2.5-4.1,6.5-6.5,12-6.5c8.1,0,14.2,6.9,14.2,17.1
		c0,12.1-7.4,18.1-15.3,18.1c-4.4,0-8.3-1.9-10.4-5.3h-0.1v18.3h-6V24.9z M174.9,33.9c0,0.9,0.1,1.7,0.3,2.5
		c1.1,4.2,4.8,7.2,9.2,7.2c6.5,0,10.2-5.3,10.2-13c0-6.7-3.5-12.5-10-12.5c-4.2,0-8.1,3-9.2,7.6c-0.2,0.8-0.4,1.7-0.4,2.5V33.9z"/>
	<path d="M223.1,24.9c0-4.3-0.1-7.8-0.3-11h5.5l0.3,5.8h0.1c2.5-4.1,6.5-6.5,12-6.5c8.1,0,14.2,6.9,14.2,17.1
		c0,12.1-7.4,18.1-15.3,18.1c-4.4,0-8.3-1.9-10.4-5.3h-0.1v18.3h-6V24.9z M229.2,33.9c0,0.9,0.1,1.7,0.3,2.5
		c1.1,4.2,4.8,7.2,9.2,7.2c6.5,0,10.2-5.3,10.2-13c0-6.7-3.5-12.5-10-12.5c-4.2,0-8.1,3-9.2,7.6c-0.2,0.8-0.4,1.7-0.4,2.5V33.9z"/>
	<path d="M280.8,31.9c0.1,8.3,5.4,11.7,11.5,11.7c4.4,0,7-0.8,9.3-1.7l1,4.4c-2.2,1-5.8,2.1-11.2,2.1c-10.4,0-16.5-6.8-16.5-17
		c0-10.1,6-18.1,15.8-18.1c11,0,13.9,9.7,13.9,15.8c0,1.2-0.1,2.2-0.2,2.8H280.8z M298.7,27.5c0.1-3.9-1.6-9.9-8.5-9.9
		c-6.2,0-8.9,5.7-9.4,9.9H298.7z"/>
	<path d="M326.9,24.4c0-4-0.1-7.4-0.3-10.5h5.4l0.2,6.6h0.3c1.5-4.5,5.2-7.4,9.3-7.4c0.7,0,1.2,0.1,1.7,0.2v5.8
		c-0.6-0.1-1.3-0.2-2.1-0.2c-4.3,0-7.4,3.3-8.2,7.9c-0.1,0.8-0.3,1.8-0.3,2.8v17.9h-6V24.4z"/>
	<g>
		<g>
			<g>
				<path class="st0" d="M54.6,34c-1.9,2.6-4.1,4.3-6.8,5c-0.2,0-0.5,0.1-0.9,0.2l-22.7-7c0,0-5.6-1.2-5.8-2.2
					c-0.3-1.3-1.6-1.9-3.8-2L11,28c-5.3-0.1-8.4-1.8-9.3-5.2c-0.5-1.7-0.2-3.3,0.7-4.7s2.2-2.4,3.9-2.8c2.2-0.6,4.3-0.3,6.2,0.9
					c1.9,1.2,3.2,2.9,3.8,5.1l0.5,1.8c0.1,0.6,1,1.2,2.6,1.6l3.1,0.9l6.8,1.8L54.6,34z M24.7,28.3c-0.2-0.9-0.8-1.2-1.7-1
					c-0.9,0.2-1.2,0.8-1,1.7c0.2,0.9,0.8,1.2,1.7,0.9C24.6,29.7,24.9,29.2,24.7,28.3z M13.4,21.8c-0.3-1.3-1.2-2.3-2.5-3.1
					c-1.3-0.8-2.6-1-3.9-0.7c-0.9,0.2-1.6,0.8-2.1,1.5s-0.7,1.6-0.5,2.5c0.4,1.5,2,2.4,4.8,2.7l1.6,0.2c0.8,0.1,1.4,0.1,1.5,0
					C13.6,24.7,13.9,23.6,13.4,21.8z"/>
			</g>
		</g>
		<g>
			<g>
				<path class="st0" d="M29.3,29.8l-6.7,2l-3,1c-1.6,0.5-2.4,1.1-2.5,1.7l-0.4,1.8c-0.5,2.2-1.7,4-3.6,5.2
					c-1.9,1.3-3.9,1.6-6.2,1.1c-1.7-0.4-3.1-1.3-4-2.7S1.6,37,2,35.3c0.8-3.4,3.8-5.2,9.1-5.5l3.6-0.2c2.2-0.1,3.4-0.8,3.7-2.1
					c0.2-0.9,5.7-2.4,5.7-2.4l22.5-7.8c0.4,0.1,0.7,0.1,0.9,0.2c2.7,0.6,5.1,2.2,7,4.8L29.3,29.8z M23.8,27.3
					c-0.9-0.2-1.4,0.1-1.6,1c-0.2,0.9,0.1,1.4,1,1.6c0.9,0.2,1.4-0.1,1.6-1C25,28.1,24.7,27.5,23.8,27.3z M12.6,32.6
					c-0.2,0-0.7,0-1.5,0.1L9.5,33c-2.8,0.4-4.3,1.4-4.7,2.9c-0.2,0.9,0,1.7,0.5,2.5c0.6,0.8,1.3,1.3,2.2,1.5c1.3,0.3,2.6,0,3.9-0.8
					c1.3-0.8,2.1-1.9,2.4-3.1C14.2,34,13.8,32.9,12.6,32.6z"/>
			</g>
		</g>
	</g>
	<path d="M25.9,21c-6-2.2-8.9-5.5-8.9-9.5c0-5.4,4.4-9.9,11.6-9.9c3.4,0,6.4,1,8.3,2.1l-1.5,4.4c-1.3-0.8-3.8-1.9-6.9-1.9
		c-3.6,0-5.6,2.1-5.6,4.6c0,2.8,2,4,6.4,5.7"/>
</g>
</svg>
